<svg xmlns="http://www.w3.org/2000/svg" width="400" height="253.3" viewBox="0 0 300 190" stroke="#FFF" fill="#FFF">
<path d="m9 22 25.9 78 25.8 77.5 6.4.3 6.4.3 12.8-38.3L99 101.5l-3.9-11.3a129 129 0 0 0-4.4-11.8 568 568 0 0 0-11.8 34c-6.3 19-11.7 34.6-12 34.6s-.9-1.4-1.3-3.2c-.3-1.7-9.4-29.8-20.2-62.4L25.7 22.1l-8.3-.3c-4.6-.2-8.4-.1-8.4.2m13.8 4.8c.9.9 2.3 3.7 3.1 6.2.7 2.5 2.2 6.7 3.2 9.5a642 642 0 0 1 10 31c1.2 1.9 5 14.3 4.7 15.1-.1.5.3 1.8.9 2.9a172 172 0 0 1 6.6 19.1c.2 1.1 1.1 3.7 2.1 5.8.9 2.2 2.6 7.2 3.7 11a162 162 0 0 0 5.3 15.2c.9 3 4 5.6 5.8 4.9s4.4-6.4 8.7-18.5c3.3-9.6 8-23.7 8.5-26a42 42 0 0 1 5.5-12.6c.4.3 1.6 3 2.6 6l1.9 5.4-2.9 8.9-3.2 9.8c-.9 3.1-7.4 22.2-8 23.5l-.8 2c-1.7 7-8.4 25.6-9.7 26.9-3.1 3.4-6.6 1.6-9.4-4.7-1.3-3-2.7-7.2-3-9.3-.4-2.1-.9-3.7-1.3-3.5q-.6.3-.8-1.2c0-.9-1.5-5.8-3.3-10.7-1.7-5-3.3-9.8-3.5-10.8a10 10 0 0 0-1.2-3l-.9-1.7q0-.6-.7-2l-5.2-16.5c-2.6-8.3-5.4-16.1-6.2-17.4q-1.7-2.6-.2-1.5 1.7 1 .2-.7a9 9 0 0 1-1.6-3.5l-1-3.4c-.4-.8-2-5.8-3.7-11a816 816 0 0 0-8.3-24.6c-.4-.4-.7-1.7-.7-2.9s-.3-2.5-.7-2.8c-1.1-1.2-5-14.2-4.5-15.5.6-1.8 6-1.4 8 .6M189.4 21.8l-8.2.3-20.1 61.2-20.7 62.7c-.4 1.2-30.2-86.3-33.4-98.2l-1-3.7-8.6-.3c-8.1-.3-8.5-.2-8.1 1.7l22.4 67 21.9 65 6.7.3c5.3.2 6.7 0 6.7-1.1 0-2.2 48.9-148.8 50.8-152.4.7-1.2.9-2.3.5-2.5a59 59 0 0 0-8.9 0M193 26c0 .5-2.5 8.3-5.5 17.2-5 14.7-7.7 22.8-12 36.8a188 188 0 0 1-8.8 24l-1 4.5c-.6 2-10.7 32.6-12.7 38l-4.9 15-3.8 12-3.5.3q-3.3.2-4.7-1.1c-1-1.2-6-15.1-7.5-20.7l-2.3-7c-1.1-3-2.8-8.2-3.8-11.5a42 42 0 0 0-3.5-9c-.3-1.4-.6-2.2-2.6-8.5l-2-6.3-.4-1.2c-.3-.5-.3-.6-1.5-5a86 86 0 0 1-5.5-16.8A236.3 236.3 0 0 1 99.5 65l-.8-2a78 78 0 0 1-4.3-14.7c1.2-1.3 7.3-1.3 8.3-.1 1.1 1.3 5.7 14.2 7.3 20.3l7.4 21.9c3.6 10.4 6.2 19.4 5.9 20q-.4 1 .2.3c.5-.4 1.9 3 3.2 7.4a77 77 0 0 0 3.9 11.4c.9 4.1 1.3 5.6 3.2 9.8 1.2 2.7 2.2 5.2 2.2 5.7 0 1.6 3 3.1 4.9 2.5q2-.5 4.6-7.8l3.3-8.7a160.3 160.3 0 0 1 4.5-14.5l10-29.9a236 236 0 0 1 8.2-22.4 55 55 0 0 1 4.9-15.9 5 5 0 0 0 .6-2.5q.1-1.6 1.3-1.8 1.2 0-.3-1t-.2-1q1 0 1.1-.8l.1-1.5.4-1.5c2.9-11 4.5-13.2 9.7-13.2 2.1 0 3.9.4 3.9 1M220 21.9a87 87 0 0 0-9.5 2c-4 1.1-4 1.2-7.1 10.9a61 61 0 0 0-2.9 10 61.6 61.6 0 0 1 46-5.1 59 59 0 0 1 23.4 14.5l4.3 4.6 6.3-4.6 6.4-4.6L283 45a74 74 0 0 0-63-23.1m30.1 5.8c3.3 1 5.9 2.1 5.9 2.5q.2.7 1.7.8c4.5 0 22.8 14.2 22.8 17.7 0 .6-1.2 2.1-2.7 3.2l-2.7 2.1-4.8-4.2a60 60 0 0 0-61.7-12.3c-1.7.8-1.9.5-1.3-3 1.1-6.8 3.5-8.1 17.1-9.4a72 72 0 0 1 25.7 2.6M174.6 120l-3.7 11.6-3.2 10.1 2.5 4.4a70 70 0 0 0 43.6 30.4 95 95 0 0 0 32.3.1 77 77 0 0 0 36.9-21.2c4-4.3 4.2-4.9 2.6-5.8-1-.6-4-2.8-6.6-4.8l-4.7-3.6-4.4 4.5a55 55 0 0 1-22.6 13.9 60 60 0 0 1-34.4.5 56 56 0 0 1-35.4-34.8c-1.3-3.7-2.6-6.1-2.9-5.3m4.3 17.1c4 7.2 15.7 17.9 24.2 22.1 10 5 13.1 5.8 23.4 6.4 8.9.6 17.8-.9 25.8-4.3a83 83 0 0 0 19.4-12.2c2.7-2.6 4.1-2.6 7.1-.2q3.9 3.4.7 4.7-1.3.7-1.1 1.3c.7 1.1-13.8 11.4-18 12.8-2.1.7-4.1 1.7-4.4 2.1q-.6.7-2 1.1l-6.5 1.8c-11.9 3.4-31.3 2.6-39.7-1.6-2.1-1-3.5-1.3-3.1-.8.7 1.2-10.9-5.1-11.7-6.3-.3-.4-1.8-1.4-3.5-2.3-3.7-2-10.5-8.2-10.5-9.7q0-1-1-.5t-1-.4c0-.6-1.1-2.7-2.5-4.7-2.8-4.1-3.1-6.5-1.4-11.3 1.4-4 2.8-3.6 5.8 2"/>
</svg>